<svg xmlns="http://www.w3.org/2000/svg" width="32" height="32" viewBox="0 0 32 32" shape-rendering="crispEdges">
  <rect width="32" height="32" fill="none"/>
  <rect x="12" y="3" width="8" height="1" fill="#eef1f6"/>
  <rect x="11" y="4" width="10" height="4" fill="#eef1f6"/>
  <rect x="12" y="8" width="8" height="1" fill="#eef1f6"/>
  <rect x="10" y="5" width="1" height="2" fill="#c8ced8"/>
  <rect x="21" y="5" width="1" height="2" fill="#c8ced8"/>
  <rect x="13" y="5" width="2" height="2" fill="#1a1f2a"/>
  <rect x="17" y="5" width="2" height="2" fill="#1a1f2a"/>
  <rect x="14" y="8" width="4" height="1" fill="#8f98a8"/>
  <rect x="13" y="10" width="6" height="1" fill="#e0e5ec"/>
  <rect x="14" y="11" width="4" height="1" fill="#9099aa"/>
  <rect x="13" y="12" width="6" height="1" fill="#e0e5ec"/>
  <rect x="12" y="13" width="8" height="1" fill="#b4bcc8"/>
  <rect x="13" y="14" width="6" height="1" fill="#e0e5ec"/>
  <rect x="12" y="15" width="2" height="1" fill="#e0e5ec"/>
  <rect x="18" y="15" width="2" height="1" fill="#e0e5ec"/>
  <rect x="14" y="15" width="4" height="1" fill="#c8ced8"/>
  <rect x="13" y="16" width="1" height="4" fill="#e0e5ec"/>
  <rect x="18" y="16" width="1" height="4" fill="#e0e5ec"/>
  <rect x="15" y="16" width="2" height="3" fill="#9099aa"/>
  <rect x="14" y="19" width="4" height="2" fill="#c8ced8"/>
  <rect x="13" y="21" width="6" height="1" fill="#e0e5ec"/>
  <rect x="11" y="18" width="2" height="4" fill="#d8dde6"/>
  <rect x="19" y="18" width="2" height="4" fill="#d8dde6"/>
  <rect x="12" y="22" width="3" height="5" fill="#e0e5ec"/>
  <rect x="17" y="22" width="2" height="5" fill="#e0e5ec"/>
  <rect x="11" y="27" width="4" height="2" fill="#8f98a8"/>
  <rect x="17" y="27" width="5" height="2" fill="#8f98a8"/>
</svg>
