<svg xmlns="http://www.w3.org/2000/svg" viewBox="0 0 32 32">
  <defs>
    <linearGradient id="flame" x1="0" x2="1" y1="0" y2="1">
      <stop offset="0%" stop-color="#fff4bd"/>
      <stop offset="45%" stop-color="#ffb35e"/>
      <stop offset="100%" stop-color="#db4b1f"/>
    </linearGradient>
  </defs>
  <path d="M8 18c1-5 5-8 10-11-1 3 2 4 4 7 2 2 3 4 3 7 0 5-4 8-9 8s-8-4-8-8c0-1 0-2 0-3Z" fill="#3a1a14"/>
  <path d="M11 19c0-4 3-6 7-9 0 2 2 3 3 5 2 1 2 3 2 5 0 4-3 6-7 6s-5-3-5-7Z" fill="url(#flame)"/>
  <circle cx="16" cy="20" r="4" fill="#fff6d8"/>
  <path d="m7 23 3-1-2 3Zm2-6 3-1-2 3Zm12-8 2 2h-3Z" fill="#ffc872" opacity=".85"/>
</svg>
