<svg xmlns="http://www.w3.org/2000/svg" viewBox="0 0 32 32">
  <defs>
    <linearGradient id="core" x1="0" x2="1" y1="0" y2="1">
      <stop offset="0%" stop-color="#fef6cb"/>
      <stop offset="48%" stop-color="#8df4f1"/>
      <stop offset="100%" stop-color="#2fb6c8"/>
    </linearGradient>
  </defs>
  <path d="M16 28 6 18C3 15 3 10 6 7c3-3 7-2 10 1 3-3 7-4 10-1s3 8 0 11Z" fill="#39211a"/>
  <path d="M16 25 8 17c-2-2-2-5 0-7 2-2 5-1 8 2 3-3 6-4 8-2 2 2 2 5 0 7Z" fill="url(#core)"/>
  <path d="M16 7c1 2 3 3 5 3-1 1-2 3-2 5-1-2-3-3-5-3 2-1 3-3 2-5Z" fill="#fffbe6" opacity=".6"/>
</svg>
