<svg xmlns="http://www.w3.org/2000/svg" viewBox="0 0 32 32">
  <defs>
    <linearGradient id="blink" x1="0" x2="1" y1="0" y2="1">
      <stop offset="0%" stop-color="#f6fffd"/>
      <stop offset="45%" stop-color="#8ef4de"/>
      <stop offset="100%" stop-color="#2dbba7"/>
    </linearGradient>
  </defs>
  <path d="M7 17c4 0 8-4 10-9 1 3 3 5 6 6-4 1-7 4-8 9-2-2-4-4-8-6Z" fill="#173139"/>
  <path d="M9 17c4-1 7-4 9-8 1 2 3 4 5 5-4 2-6 4-7 8-2-2-4-3-7-5Z" fill="url(#blink)"/>
  <path d="M5 24h6v2H5zm15-15h6v2h-6zm-4 16h9v2h-9zM7 8h4v2H7z" fill="#9ef7e8" opacity=".95"/>
</svg>
