<svg xmlns="http://www.w3.org/2000/svg" width="32" height="32" viewBox="0 0 32 32" shape-rendering="crispEdges">
  <rect width="32" height="32" fill="none"/>
  <rect x="14" y="3" width="4" height="2" fill="#9fd7ff"/>
  <rect x="12" y="5" width="8" height="2" fill="#86c8f7"/>
  <rect x="10" y="7" width="12" height="2" fill="#6bb5ed"/>
  <rect x="11" y="9" width="10" height="2" fill="#7cc0f1"/>
  <rect x="10" y="11" width="12" height="3" fill="#3f68c4"/>
  <rect x="8" y="13" width="2" height="6" fill="#315ab3"/>
  <rect x="22" y="13" width="2" height="6" fill="#315ab3"/>
  <rect x="9" y="14" width="14" height="8" fill="#315ab3"/>
  <rect x="11" y="15" width="10" height="4" fill="#22315f"/>
  <rect x="13" y="19" width="6" height="2" fill="#1f2540"/>
  <rect x="10" y="22" width="12" height="5" fill="#2a3d7c"/>
  <rect x="9" y="27" width="14" height="2" fill="#1f2540"/>
  <rect x="12" y="11" width="8" height="2" fill="#9fd7ff"/>
  <rect x="12" y="13" width="8" height="1" fill="#6bb5ed"/>
  <rect x="11" y="10" width="2" height="11" fill="#9d7c47"/>
  <rect x="8" y="8" width="5" height="2" fill="#ccd7f0"/>
  <rect x="11" y="27" width="4" height="2" fill="#1f2540"/>
  <rect x="17" y="27" width="4" height="2" fill="#1f2540"/>
</svg>
